# xmcd
#
# Track frame offsets: 
#        150
#        25866
#        47525
#        68990
#        98756
#        118488
#        136954
#        165831
#        181766
#        202266
#        216557
#        239578
#
# Disc length: 3359 seconds
#
# Revision: 0
# Processed by: cddbd v1.5.2PL0 Copyright (c) Steve Scherf et al.
# Submitted via: ExactAudioCopy v0.99pb4
#
DISCID=b00d1d0c
DTITLE=Oberg - More Blues As Blues Can Get
DYEAR=2010
DGENRE=Blues
TTITLE0=Blues As Blues Can Get
TTITLE1=Wishing Well
TTITLE2=What You Got
TTITLE3=Head Up High
TTITLE4=Wanna Run
TTITLE5=Pick Up On My Mojo
TTITLE6=I Want You
TTITLE7=Black Spider
TTITLE8=Six String On A Wing
TTITLE9=If You Don't Know
TTITLE10=Wang Dang Doodle
TTITLE11=Last Station
EXTD=
EXTT0=
EXTT1=
EXTT2=
EXTT3=
EXTT4=
EXTT5=
EXTT6=
EXTT7=
EXTT8=
EXTT9=
EXTT10=
EXTT11=
PLAYORDER=
